<svg width="1243" height="55" viewBox="0 0 1243 55" fill="none" xmlns="http://www.w3.org/2000/svg">
<path fill-rule="evenodd" clip-rule="evenodd" d="M1224 2.85002C1215.09 2.85002 1207.85 10.0947 1207.85 19C1207.85 27.9053 1215.09 35.15 1224 35.15C1232.91 35.15 1240.15 27.9053 1240.15 19C1240.15 10.0947 1232.91 2.85002 1224 2.85002ZM1224 38C1213.52 38 1205 29.4766 1205 19C1205 8.5234 1213.52 0 1224 0C1234.48 0 1243 8.5234 1243 19C1243 29.4766 1234.48 38 1224 38Z" fill="#122D1C"/>
<path fill-rule="evenodd" clip-rule="evenodd" d="M1230.62 23.1729C1230.25 23.1729 1229.88 23.0384 1229.61 22.7657L1224.02 17.3245L1218.44 22.7657C1217.88 23.3074 1216.98 23.3074 1216.42 22.7694C1215.86 22.2313 1215.86 21.358 1216.42 20.8162L1223.01 14.3911C1223.54 13.8696 1224.49 13.8696 1225.03 14.3911L1231.63 20.8162C1232.18 21.358 1232.18 22.2313 1231.62 22.7694C1231.34 23.0384 1230.98 23.1729 1230.62 23.1729Z" fill="#122D1C"/>
</svg>
